<?xml version="1.0" encoding="UTF-8" standalone="no"?>
<svg
   width="24"
   height="25"
   viewBox="0 0 24 25"
   fill="none"
   version="1.1"
   id="svg1158"
   sodipodi:docname="QuestionDark.svg"
   inkscape:version="1.1.2 (0a00cf5339, 2022-02-04)"
   xmlns:inkscape="http://www.inkscape.org/namespaces/inkscape"
   xmlns:sodipodi="http://sodipodi.sourceforge.net/DTD/sodipodi-0.dtd"
   xmlns="http://www.w3.org/2000/svg"
   xmlns:svg="http://www.w3.org/2000/svg">
  <defs
     id="defs1162" />
  <sodipodi:namedview
     id="namedview1160"
     pagecolor="#ffffff"
     bordercolor="#666666"
     borderopacity="1.0"
     inkscape:pageshadow="2"
     inkscape:pageopacity="0.0"
     inkscape:pagecheckerboard="0"
     showgrid="false"
     inkscape:zoom="25.2"
     inkscape:cx="3.8492063"
     inkscape:cy="12.480159"
     inkscape:window-width="2560"
     inkscape:window-height="1517"
     inkscape:window-x="0"
     inkscape:window-y="0"
     inkscape:window-maximized="1"
     inkscape:current-layer="svg1158" />
  <circle
     cx="12"
     cy="13"
     r="11.5"
     stroke="#1D1D28"
     id="circle1154"
     style="stroke:#ffffff;stroke-opacity:1" />
  <path
     d="M6.10156 9.49609C6.23438 7.97266 6.80469 6.76562 7.8125 5.875C8.82812 4.97656 10.1133 4.52734 11.668 4.52734C13.3164 4.52734 14.6484 4.96875 15.6641 5.85156C16.6797 6.72656 17.1875 7.84375 17.1875 9.20312C17.1875 9.96875 17.0117 10.6797 16.6602 11.3359C16.3164 11.9922 15.6641 12.7188 14.7031 13.5156C13.7422 14.3125 13.1523 14.9492 12.9336 15.4258C12.7148 15.8945 12.6055 16.6797 12.6055 17.7812H10.543C10.543 16.3281 10.7109 15.2656 11.0469 14.5938C11.3828 13.9141 12 13.1914 12.8984 12.4258C13.8047 11.6602 14.3672 11.0742 14.5859 10.668C14.8047 10.2539 14.9141 9.81641 14.9141 9.35547C14.9141 8.45703 14.6172 7.71875 14.0234 7.14062C13.4297 6.55469 12.6523 6.26172 11.6914 6.26172C9.81641 6.26172 8.71484 7.33984 8.38672 9.49609H6.10156ZM12.8516 22H10.4492V19.5977H12.8516V22Z"
     fill="#1D1D28"
     id="path1156"
     style="stroke:#ffffff;stroke-opacity:1;fill:#ffffff;fill-opacity:1" />
</svg>
