<svg width="30" height="28" viewBox="0 0 30 28" fill="none" xmlns="http://www.w3.org/2000/svg">
<path d="M1.17812 1.70984L1 25.4288V25.9571C1 26.0534 1.01299 26.1493 1.03862 26.2421V26.2421C1.06098 26.3232 1.0928 26.4013 1.13342 26.4749L1.14939 26.5038C1.19415 26.5849 1.24943 26.6597 1.31379 26.7263L1.34263 26.7562C1.40292 26.8186 1.47296 26.8708 1.55001 26.9107V26.9107C1.66352 26.9694 1.78947 27.0001 1.91729 27.0001H28.5013" stroke="#1D1D28" stroke-width="0.7"/>
<path d="M28.5014 27L28.5332 26.9733C28.6303 26.8918 28.7168 26.7984 28.7906 26.6952L28.8319 26.6375C28.8727 26.5805 28.9066 26.519 28.9331 26.4541V26.4541C28.9774 26.3459 29.0001 26.2301 29.0001 26.1132V4.21264L28.9771 3.97128C28.9688 3.88438 28.9401 3.80068 28.8932 3.72701V3.72701L28.7151 3.50287C28.6676 3.45307 28.5655 3.35345 28.537 3.35345V3.35345C28.4096 3.35345 28.2924 3.27874 28.165 3.27874H11.9009V3.27874C11.7126 3.27874 11.5259 3.24336 11.3507 3.17444L11.3309 3.16667L11.0815 3.09195V3.09195C10.892 3.01744 10.7107 2.92363 10.5404 2.81202L10.5116 2.7931L10.1909 2.53161C10.0959 2.4569 9.90596 2.3 9.90596 2.27011C9.90596 2.24023 9.71597 2.05843 9.62097 1.97126L9.33598 1.74713L9.051 1.52299L8.83726 1.37356L8.58789 1.22414V1.22414C8.37671 1.12571 8.14655 1.07471 7.91356 1.07471H7.69731L2.07361 1.00191C1.97586 1.00064 1.87838 1.01257 1.78382 1.03736V1.03736L1.74418 1.05399C1.65246 1.09246 1.56753 1.14543 1.49263 1.21088V1.21088C1.42586 1.26923 1.36781 1.33684 1.32024 1.41167L1.30827 1.43049C1.26917 1.492 1.23638 1.5573 1.21041 1.6254L1.17822 1.70977" stroke="#1D1D28" stroke-width="0.7"/>
<path d="M1.14233 7.276H28.9998" stroke="#1D1D28" stroke-width="0.7"/>
<path d="M15.2849 10.7874V22.6549C15.2849 22.7233 15.3403 22.7787 15.4087 22.7787V22.7787C15.4433 22.7787 15.4764 22.7642 15.4998 22.7388L20.4503 17.3621" stroke="#1D1D28" stroke-width="0.7"/>
<path d="M15.2852 22.8161C15.2567 22.6965 11.7347 19.0805 9.97729 17.2874" stroke="#1D1D28" stroke-width="0.7"/>
</svg>
