<?xml version="1.0" encoding="UTF-8" standalone="no"?>
<svg
   height="48"
   viewBox="0 -960 960 960"
   width="48"
   version="1.1"
   id="svg4"
   sodipodi:docname="UpdateDark.svg"
   inkscape:version="1.1.2 (0a00cf5339, 2022-02-04)"
   xmlns:inkscape="http://www.inkscape.org/namespaces/inkscape"
   xmlns:sodipodi="http://sodipodi.sourceforge.net/DTD/sodipodi-0.dtd"
   xmlns="http://www.w3.org/2000/svg"
   xmlns:svg="http://www.w3.org/2000/svg">
  <defs
     id="defs8" />
  <sodipodi:namedview
     id="namedview6"
     pagecolor="#ffffff"
     bordercolor="#666666"
     borderopacity="1.0"
     inkscape:pageshadow="2"
     inkscape:pageopacity="0.0"
     inkscape:pagecheckerboard="0"
     showgrid="false"
     inkscape:zoom="13.125"
     inkscape:cx="8.3047619"
     inkscape:cy="24.038095"
     inkscape:window-width="2560"
     inkscape:window-height="1517"
     inkscape:window-x="0"
     inkscape:window-y="0"
     inkscape:window-maximized="1"
     inkscape:current-layer="svg4" />
  <path
     d="M483-120q-75 0-141-28.5T226.5-226q-49.5-49-78-115T120-482q0-75 28.5-140t78-113.5Q276-784 342-812t141-28q80 0 151.5 35T758-709v-106h60v208H609v-60h105q-44-51-103.5-82T483-780q-125 0-214 85.5T180-485q0 127 88 216t215 89q125 0 211-88t86-213h60q0 150-104 255.5T483-120Zm122-197L451-469v-214h60v189l137 134-43 43Z"
     id="path2"
     style="fill:#ffffff;fill-opacity:1;stroke:#ffffff;stroke-opacity:1" />
</svg>
